HIERARCHY
ROOT Hips
{
	OFFSET 0.000000 0.000000 0.000000 
	CHANNELS 6 Xposition Yposition Zposition Zrotation Yrotation Xrotation
	JOINT LeftUpLeg
	{
		OFFSET 1.363060 -1.794630 0.839290 
		CHANNELS 3 Zrotation Yrotation Xrotation
		JOINT LeftLeg
		{
			OFFSET 2.448110 -6.726130 0.000000 
			CHANNELS 3 Zrotation Yrotation Xrotation
			JOINT LeftFoot
			{
				OFFSET 2.562200 -7.039590 0.000000 
				CHANNELS 3 Zrotation Yrotation Xrotation
				JOINT LeftToeBase
				{
					OFFSET 0.157640 -0.433110 2.322550 
					CHANNELS 3 Zrotation Yrotation Xrotation
					End Site
					{
						OFFSET 0.000000 0.000000 0.000000 
					}
				}
			}
		}
	}
	JOINT RightUpLeg
	{
		OFFSET -1.305520 -1.794630 0.839290 
		CHANNELS 3 Zrotation Yrotation Xrotation
		JOINT RightLeg
		{
			OFFSET -2.542530 -6.985550 0.000000 
			CHANNELS 3 Zrotation Yrotation Xrotation
			JOINT RightFoot
			{
				OFFSET -2.568260 -7.056230 0.000000 
				CHANNELS 3 Zrotation Yrotation Xrotation
				JOINT RightToeBase
				{
					OFFSET -0.164730 -0.452590 2.363150 
					CHANNELS 3 Zrotation Yrotation Xrotation
					End Site
					{
						OFFSET 0.000000 0.000000 0.000000 
					}
				}
			}
		}
	}
	JOINT Spine
	{
		OFFSET 0.028270 2.035590 -0.193380 
		CHANNELS 3 Zrotation Yrotation Xrotation
		JOINT Spine1
		{
			OFFSET 0.056720 2.048850 -0.042750 
			CHANNELS 3 Zrotation Yrotation Xrotation
			JOINT Neck1
			{
				OFFSET -0.054170 1.746240 0.172020 
				CHANNELS 3 Zrotation Yrotation Xrotation
				JOINT Head
				{
					OFFSET 0.104070 1.761360 -0.123970 
					CHANNELS 3 Zrotation Yrotation Xrotation
					End Site
					{
						OFFSET 0.000000 0.000000 0.000000 
					}
				}
			}
			JOINT LeftArm
			{
				OFFSET 3.362410 1.200890 -0.311210 
				CHANNELS 3 Zrotation Yrotation Xrotation
				JOINT LeftForeArm
				{
					OFFSET 4.983000 -0.000000 -0.000000 
					CHANNELS 3 Zrotation Yrotation Xrotation
					JOINT LeftHand
					{
						OFFSET 3.483560 -0.000000 -0.000000 
						CHANNELS 3 Zrotation Yrotation Xrotation
						JOINT LeftHandIndex1
						{
							OFFSET 0.715260 -0.000000 -0.000000 
							CHANNELS 3 Zrotation Yrotation Xrotation
							End Site
							{
								OFFSET 0.000000 0.000000 0.000000 
							}
						}
					}
				}
			}
			JOINT RightArm
			{
				OFFSET -3.136600 1.374050 -0.404650 
				CHANNELS 3 Zrotation Yrotation Xrotation
				JOINT RightForeArm
				{
					OFFSET -5.241900 -0.000000 -0.000000 
					CHANNELS 3 Zrotation Yrotation Xrotation
					JOINT RightHand
					{
						OFFSET -3.444170 -0.000000 -0.000000 
						CHANNELS 3 Zrotation Yrotation Xrotation
						JOINT RightHandIndex1
						{
							OFFSET -0.622530 -0.000000 -0.000000 
							CHANNELS 3 Zrotation Yrotation Xrotation
							End Site
							{
								OFFSET 0.000000 0.000000 0.000000 
							}
						}
					}
				}
			}
		}
	}
}
MOTION
Frames: 7
Frame Time: 0.041667
-7.922463 17.528198 2.545440 -14.851728 54.312762 1.793099 5.880131 1.226303 -9.346172 -0.283702 5.342119 16.378848 -7.150291 25.355563 -14.826229 0.011600 -0.695600 -1.911700 16.074827 22.548454 -31.380241 -4.261698 -11.955043 37.860214 -1.892336 17.085814 3.088035 -0.885800 -5.999400 16.782700 -4.274756 -16.238230 -1.653117 7.359312 -8.189826 -1.103279 -7.787869 31.007753 8.769842 -1.405300 14.054800 7.839900 162.681667 -38.346457 -173.607307 26.747007 -35.153102 -8.577368 0.431694 0.164615 -0.703908 -7.125000 0.000000 0.000000 24.378833 47.729335 -27.856331 -133.410857 52.351598 -94.921560 0.503286 -0.512457 3.510014 7.125000 0.000000 0.000000 
-7.926914 17.538920 2.527335 -14.743372 54.244025 1.870786 5.754652 1.585889 -9.660677 -0.239710 5.425244 16.582458 -7.186903 25.402995 -14.446583 0.018500 -0.877300 -2.411200 15.915865 22.699345 -31.245971 -4.209522 -11.892329 37.643614 -1.888548 16.989127 3.198241 -0.881000 -5.983700 16.737000 -4.319539 -16.233952 -1.655155 7.375374 -8.177352 -1.176937 -7.867680 31.048745 8.885054 -1.412800 14.058800 7.913300 162.528455 -38.196956 -173.554956 26.672113 -35.059651 -8.526314 0.430219 0.170610 -0.768436 -7.125000 0.000000 0.000000 23.911609 47.426769 -28.162059 -133.274978 52.394273 -94.817199 0.506885 -0.507864 3.135577 7.125000 0.000000 0.000000 
-7.931870 17.547112 2.508219 -14.771945 54.179379 1.828390 5.704179 1.965055 -10.002851 -0.182882 5.521952 16.829871 -7.218666 25.437897 -14.106047 0.031900 -1.153000 -3.169900 15.865811 22.787898 -31.134825 -4.152686 -11.823396 37.406237 -1.884418 16.913357 3.320520 -0.862200 -5.921200 16.556000 -4.344368 -16.166263 -1.594543 7.364397 -8.139972 -1.207796 -7.951037 31.021081 8.965994 -1.441500 14.037500 7.969600 162.385414 -38.031547 -173.426893 26.630339 -35.002630 -8.495329 0.427793 0.175623 -1.075835 -7.125000 0.000000 0.000000 23.542722 47.035402 -28.390521 -133.066271 52.468176 -94.651573 0.509901 -0.500880 2.830208 7.125000 0.000000 0.000000 
-7.937230 17.552372 2.483438 -14.847141 54.146539 1.814893 5.670933 2.405503 -10.412240 -0.120296 5.624322 17.106461 -7.149027 25.170219 -13.737320 0.038000 -1.258000 -3.459000 15.833319 22.693261 -31.185801 -4.091213 -11.750084 37.153169 -1.881938 16.980229 3.515161 -0.851300 -5.884400 16.449400 -4.372853 -16.075046 -1.521738 7.299216 -8.095227 -1.213239 -7.886582 30.928781 8.971129 -1.428500 13.994200 7.953100 162.309315 -37.851272 -173.354355 26.562880 -34.924979 -8.452248 0.426608 0.179365 -1.145043 -7.125000 0.000000 0.000000 23.223191 46.685770 -28.714424 -132.952031 52.504570 -94.563068 0.513615 -0.495523 2.418514 7.125000 0.000000 0.000000 
-7.943805 17.568657 2.459972 -14.795975 54.126728 1.869913 5.544454 2.966629 -10.850846 -0.035022 5.720269 17.297099 -7.369002 25.666318 -12.635366 0.147400 -2.474000 -6.817500 15.742485 22.534027 -31.204406 -4.029145 -11.682419 36.902867 -1.884571 17.117008 3.674236 -0.843700 -5.858600 16.374800 -4.437854 -16.006838 -1.464910 7.302824 -8.057845 -1.230589 -7.832987 30.848391 8.982630 -1.429700 13.962600 7.949600 162.386136 -37.737229 -173.513635 26.523123 -34.883425 -8.424359 0.422573 0.179152 -1.031349 -7.125000 0.000000 0.000000 23.070042 46.434828 -28.914183 -132.880887 52.529930 -94.511062 0.517053 -0.490274 1.949518 7.125000 0.000000 0.000000 
-7.951593 17.583222 2.439338 -14.861855 54.144199 1.756556 5.504497 3.420807 -11.163890 0.046548 5.791562 17.421244 -7.575825 26.152303 -11.514073 0.322100 -3.647900 -10.088000 15.735399 22.509788 -31.084201 -3.971265 -11.618681 36.666652 -1.883001 17.058844 3.777891 -0.843200 -5.857100 16.370400 -4.514772 -16.011693 -1.397878 7.316759 -8.056433 -1.269571 -7.925707 30.865160 9.024132 -1.486900 13.980300 8.012100 162.560341 -37.801198 -173.693439 26.496444 -34.863248 -8.403783 0.414797 0.177918 -1.062568 -7.125000 0.000000 0.000000 23.229385 46.345417 -28.835223 -132.735977 52.596472 -94.396213 0.518063 -0.484560 1.502968 7.125000 0.000000 0.000000 
-7.959786 17.583424 2.412433 -15.123091 54.195823 1.539492 5.608792 3.515040 -11.322417 0.071971 5.833676 17.560384 -7.405544 25.634565 -11.500559 0.241100 -3.160100 -8.724800 15.789400 22.537169 -31.042305 -3.916218 -11.550939 36.438961 -1.872396 16.925409 3.989343 -0.877000 -5.970500 16.698800 -4.503519 -16.037506 -1.338143 7.282614 -8.069262 -1.321199 -8.006326 30.905152 9.029301 -1.517600 13.999500 8.041400 162.609572 -37.902619 -173.697318 26.374657 -34.738980 -8.328534 0.409855 0.179989 -1.102510 -7.125000 0.000000 0.000000 23.356711 46.316063 -28.729421 -132.451866 52.720138 -94.167876 0.517985 -0.478296 1.160011 7.125000 0.000000 0.000000 
